<svg id="Layer_1" enable-background="new 0 0 492 492" viewBox="0 0 492 492" xmlns="http://www.w3.org/2000/svg"><g><g><path clip-rule="evenodd" d="m122.21 85.92c1.02-2.26 1.59-4.76 1.59-7.4 0-9.92-8.04-17.96-17.96-17.96-8.52 0-15.66 5.94-17.5 13.9-1.11-.3-2.27-.47-3.48-.47-6.85 0-12.47 5.24-13.07 11.93-7.14.13-12.88 5.96-12.88 13.13 0 7.25 5.88 13.13 13.13 13.13h50.1c7.25 0 13.13-5.88 13.13-13.13 0-7.23-5.84-13.09-13.06-13.13z" fill="#b5d5f5" fill-rule="evenodd"/></g><g><path clip-rule="evenodd" d="m219.91 77.86c-6.25.12-11.27 5.21-11.27 11.49 0 6.35 5.14 11.49 11.49 11.49h43.84c6.35 0 11.49-5.14 11.49-11.49 0-6.32-5.11-11.45-11.43-11.49.89-1.97 1.39-4.16 1.39-6.47 0-8.68-7.04-15.71-15.71-15.71-7.46 0-13.7 5.19-15.31 12.16-.97-.27-1.99-.41-3.04-.41-6-.01-10.92 4.57-11.45 10.43z" fill="#b5d5f5" fill-rule="evenodd"/></g><g><path clip-rule="evenodd" d="m377.18 99.17c-9.19 0-16.73 7.03-17.54 16-2.33.04-4.56.54-6.59 1.41v32.42c2.12.91 4.46 1.41 6.92 1.41h67.24c9.73 0 17.62-7.89 17.62-17.62 0-9.7-7.84-17.57-17.52-17.62 1.37-3.03 2.13-6.39 2.13-9.92 0-13.31-10.79-24.1-24.1-24.1-11.44 0-21.01 7.97-23.48 18.65-1.5-.41-3.06-.63-4.68-.63z" fill="#b5d5f5" fill-rule="evenodd"/></g><g><path d="m353.05 114.9h-69.45v75.38l17.55 9.6v72.93h51.9v-123.81-32.42z" fill="#c5ccd3"/></g><g><path d="m353.05 272.81h-51.91v80.42h16.72v-48.8c0-1.01.82-1.83 1.83-1.83h16.17 16.18c1.01 0 1.83.82 1.83 1.83v48.8h16.72v-80.42z" fill="#e6e9ed"/></g><g><path d="m335.87 302.6h-16.17c-1.01 0-1.83.82-1.83 1.83v48.8h18z" fill="#c5ccd3"/></g><g><path d="m335.87 302.6v50.63h18v-48.8c0-1.01-.82-1.83-1.83-1.83z" fill="#c5ccd3"/></g><g><path d="m284.42 353.23v-33.01c0-.97-.79-1.76-1.76-1.76h-16.24v34.77z" fill="#e6e9ed"/></g><g><path d="m266.42 353.23v-34.77h-16.24c-.97 0-1.76.79-1.76 1.76v33.01z" fill="#e6e9ed"/></g><g><path clip-rule="evenodd" d="m301.15 199.88-17.55-9.6-51.91-28.41v191.36h16.72v-33.01c0-.97.79-1.76 1.76-1.76h16.24 16.24c.97 0 1.76.79 1.76 1.76v33.01h16.72v-80.42-72.93z" fill="#808080" fill-rule="evenodd"/></g><g><path d="m132.59 154.26h88.43v-21.15h-18.68-51.07-18.68z" fill="#b1b8be"/></g><g><path d="m151.27 133.11h51.07v-21.16h-25.53-25.54z" fill="#c5ccd3"/></g><g><path d="m176.81 313.02h-33.21c-1.12 0-2.04.92-2.04 2.04v38.17h35.26v-40.21z" fill="#e6e9ed"/></g><g><path d="m176.81 313.02v40.21h35.26v-38.17c0-1.12-.92-2.04-2.04-2.04z" fill="#e6e9ed"/></g><g><path d="m190.82 291.38h15.63c2.1 0 3.81-1.71 3.81-3.81v-15.63c0-2.1-1.71-3.81-3.81-3.81h-15.63c-2.1 0-3.81 1.71-3.81 3.81v15.63c-.01 2.1 1.71 3.81 3.81 3.81z" fill="#e6e9ed"/></g><g><path d="m166.61 271.95c0-2.1-1.71-3.81-3.81-3.81h-15.63c-2.1 0-3.81 1.71-3.81 3.81v15.63c0 2.1 1.71 3.81 3.81 3.81h15.63c2.1 0 3.81-1.71 3.81-3.81z" fill="#e6e9ed"/></g><g><path d="m147.17 245.26h15.63c2.1 0 3.81-1.71 3.81-3.81v-15.63c0-2.1-1.71-3.81-3.81-3.81h-15.63c-2.1 0-3.81 1.71-3.81 3.81v15.63c0 2.1 1.72 3.81 3.81 3.81z" fill="#e6e9ed"/></g><g><path d="m187 225.83v15.63c0 2.1 1.71 3.81 3.81 3.81h15.63c2.1 0 3.81-1.71 3.81-3.81v-15.63c0-2.1-1.71-3.81-3.81-3.81h-15.63c-2.09-.01-3.81 1.71-3.81 3.81z" fill="#e6e9ed"/></g><g><path d="m190.82 199.14h15.63c2.1 0 3.81-1.71 3.81-3.81v-15.63c0-2.1-1.71-3.81-3.81-3.81h-15.63c-2.1 0-3.81 1.71-3.81 3.81v15.63c-.01 2.1 1.71 3.81 3.81 3.81z" fill="#e6e9ed"/></g><g><path d="m166.61 195.33v-15.63c0-2.1-1.71-3.81-3.81-3.81h-15.63c-2.1 0-3.81 1.71-3.81 3.81v15.63c0 2.1 1.71 3.81 3.81 3.81h15.63c2.1 0 3.81-1.71 3.81-3.81z" fill="#e6e9ed"/></g><g><path d="m166.61 179.7v15.63c0 2.1-1.71 3.81-3.81 3.81h-15.63c-2.1 0-3.81-1.71-3.81-3.81v-15.63c0-2.1 1.71-3.81 3.81-3.81h15.63c2.1 0 3.81 1.72 3.81 3.81zm24.21 42.31h15.63c2.1 0 3.81 1.71 3.81 3.81v15.63c0 2.1-1.71 3.81-3.81 3.81h-15.63c-2.1 0-3.81-1.71-3.81-3.81v-15.63c-.01-2.09 1.71-3.81 3.81-3.81zm40.88 131.22v-191.36-7.61h-10.67-88.43-10.67v198.96h19.63v-38.17c0-1.12.92-2.04 2.04-2.04h33.21 33.21c1.12 0 2.04.92 2.04 2.04v38.17h19.64zm-44.7-157.9v-15.63c0-2.1 1.71-3.81 3.81-3.81h15.63c2.1 0 3.81 1.71 3.81 3.81v15.63c0 2.1-1.71 3.81-3.81 3.81h-15.63c-2.09 0-3.81-1.71-3.81-3.81zm3.82 72.8h15.63c2.1 0 3.81 1.71 3.81 3.81v15.63c0 2.1-1.71 3.81-3.81 3.81h-15.63c-2.1 0-3.81-1.71-3.81-3.81v-15.63c-.01-2.09 1.71-3.81 3.81-3.81zm-43.65-46.12h15.63c2.1 0 3.81 1.71 3.81 3.81v15.63c0 2.1-1.71 3.81-3.81 3.81h-15.63c-2.1 0-3.81-1.71-3.81-3.81v-15.63c0-2.09 1.72-3.81 3.81-3.81zm15.63 46.12c2.1 0 3.81 1.71 3.81 3.81v15.63c0 2.1-1.71 3.81-3.81 3.81h-15.63c-2.1 0-3.81-1.71-3.81-3.81v-15.63c0-2.1 1.71-3.81 3.81-3.81z" fill="#c5ccd3"/></g><g><path clip-rule="evenodd" d="m266.42 353.23h-18-16.72-19.64-35.25-35.26-19.63-91.66v42.29 42.29h432v-42.29-42.29h-91.66-16.72-18.01-18-16.72-16.73z" fill="#4d4d4d" fill-rule="evenodd"/></g><g><g><path d="m462.26 442.61h-432c-2.65 0-4.8-2.15-4.8-4.8v-84.59c0-2.65 2.15-4.8 4.8-4.8h432c2.65 0 4.8 2.15 4.8 4.8v84.59c0 2.65-2.15 4.8-4.8 4.8zm-427.2-9.6h422.4v-74.99h-422.4z"/></g><g><g><path d="m100.57 400.32h-70.31c-2.65 0-4.8-2.15-4.8-4.8s2.15-4.8 4.8-4.8h70.31c2.65 0 4.8 2.15 4.8 4.8s-2.15 4.8-4.8 4.8z"/></g><g><path d="m223.57 400.32h-77.63c-2.65 0-4.8-2.15-4.8-4.8s2.15-4.8 4.8-4.8h77.63c2.65 0 4.8 2.15 4.8 4.8s-2.15 4.8-4.8 4.8z"/></g><g><path d="m346.57 400.32h-77.63c-2.65 0-4.8-2.15-4.8-4.8s2.15-4.8 4.8-4.8h77.63c2.65 0 4.8 2.15 4.8 4.8s-2.15 4.8-4.8 4.8z"/></g><g><path d="m462.26 400.32h-70.31c-2.65 0-4.8-2.15-4.8-4.8s2.15-4.8 4.8-4.8h70.31c2.65 0 4.8 2.15 4.8 4.8s-2.15 4.8-4.8 4.8z"/></g></g><g><path d="m370.6 358.03c-2.65 0-4.8-2.15-4.8-4.8v-75.62h-64.65c-2.65 0-4.8-2.15-4.8-4.8s2.15-4.8 4.8-4.8h69.45c2.65 0 4.8 2.15 4.8 4.8v80.42c0 2.65-2.15 4.8-4.8 4.8z"/></g><g><path d="m353.05 277.61c-2.65 0-4.8-2.15-4.8-4.8v-153.11h-59.85v70.58c0 2.65-2.15 4.8-4.8 4.8s-4.8-2.15-4.8-4.8v-75.38c0-2.65 2.15-4.8 4.8-4.8h69.45c2.65 0 4.8 2.15 4.8 4.8v157.91c0 2.65-2.15 4.8-4.8 4.8z"/></g><g><path d="m353.88 358.03c-2.65 0-4.8-2.15-4.8-4.8v-45.83h-26.41v45.83c0 2.65-2.15 4.8-4.8 4.8s-4.8-2.15-4.8-4.8v-48.8c0-3.66 2.97-6.63 6.63-6.63h32.35c3.65 0 6.63 2.97 6.63 6.63v48.8c-.01 2.65-2.15 4.8-4.8 4.8z"/></g><g><path d="m335.87 358.03c-2.65 0-4.8-2.15-4.8-4.8v-50.63c0-2.65 2.15-4.8 4.8-4.8s4.8 2.15 4.8 4.8v50.63c0 2.65-2.15 4.8-4.8 4.8z"/></g><g><path d="m301.15 358.03c-2.65 0-4.8-2.15-4.8-4.8v-150.5l-66.96-36.65c-2.33-1.27-3.18-4.19-1.91-6.52s4.19-3.18 6.52-1.91l69.45 38.02c1.54.84 2.5 2.46 2.5 4.21v153.34c0 2.66-2.15 4.81-4.8 4.81z"/></g><g><path d="m299.68 148.39c-2.65 0-4.8-2.15-4.8-4.8v-10.6c0-2.65 2.15-4.8 4.8-4.8s4.8 2.15 4.8 4.8v10.6c0 2.65-2.14 4.8-4.8 4.8z"/></g><g><path d="m318.33 148.39c-2.65 0-4.8-2.15-4.8-4.8v-10.6c0-2.65 2.15-4.8 4.8-4.8s4.8 2.15 4.8 4.8v10.6c0 2.65-2.15 4.8-4.8 4.8z"/></g><g><path d="m336.97 148.39c-2.65 0-4.8-2.15-4.8-4.8v-10.6c0-2.65 2.15-4.8 4.8-4.8s4.8 2.15 4.8 4.8v10.6c0 2.65-2.15 4.8-4.8 4.8z"/></g><g><path d="m299.68 176.17c-2.65 0-4.8-2.15-4.8-4.8v-10.6c0-2.65 2.15-4.8 4.8-4.8s4.8 2.15 4.8 4.8v10.6c0 2.65-2.14 4.8-4.8 4.8z"/></g><g><path d="m318.33 176.17c-2.65 0-4.8-2.15-4.8-4.8v-10.6c0-2.65 2.15-4.8 4.8-4.8s4.8 2.15 4.8 4.8v10.6c0 2.65-2.15 4.8-4.8 4.8z"/></g><g><path d="m336.97 176.17c-2.65 0-4.8-2.15-4.8-4.8v-10.6c0-2.65 2.15-4.8 4.8-4.8s4.8 2.15 4.8 4.8v10.6c0 2.65-2.15 4.8-4.8 4.8z"/></g><g><path d="m318.33 203.95c-2.65 0-4.8-2.15-4.8-4.8v-10.6c0-2.65 2.15-4.8 4.8-4.8s4.8 2.15 4.8 4.8v10.6c0 2.66-2.15 4.8-4.8 4.8z"/></g><g><path d="m336.97 203.95c-2.65 0-4.8-2.15-4.8-4.8v-10.6c0-2.65 2.15-4.8 4.8-4.8s4.8 2.15 4.8 4.8v10.6c0 2.66-2.15 4.8-4.8 4.8z"/></g><g><path d="m318.33 231.73c-2.65 0-4.8-2.15-4.8-4.8v-10.6c0-2.65 2.15-4.8 4.8-4.8s4.8 2.15 4.8 4.8v10.6c0 2.66-2.15 4.8-4.8 4.8z"/></g><g><path d="m336.97 231.73c-2.65 0-4.8-2.15-4.8-4.8v-10.6c0-2.65 2.15-4.8 4.8-4.8s4.8 2.15 4.8 4.8v10.6c0 2.66-2.15 4.8-4.8 4.8z"/></g><g><path d="m318.33 259.52c-2.65 0-4.8-2.15-4.8-4.8v-10.6c0-2.65 2.15-4.8 4.8-4.8s4.8 2.15 4.8 4.8v10.6c0 2.65-2.15 4.8-4.8 4.8z"/></g><g><path d="m336.97 259.52c-2.65 0-4.8-2.15-4.8-4.8v-10.6c0-2.65 2.15-4.8 4.8-4.8s4.8 2.15 4.8 4.8v10.6c0 2.65-2.15 4.8-4.8 4.8z"/></g><g><path d="m247.78 228.63c-2.65 0-4.8-2.15-4.8-4.8v-10.6c0-2.65 2.15-4.8 4.8-4.8s4.8 2.15 4.8 4.8v10.6c0 2.65-2.15 4.8-4.8 4.8z"/></g><g><path d="m266.42 228.63c-2.65 0-4.8-2.15-4.8-4.8v-10.6c0-2.65 2.15-4.8 4.8-4.8s4.8 2.15 4.8 4.8v10.6c0 2.65-2.15 4.8-4.8 4.8z"/></g><g><path d="m285.06 228.63c-2.65 0-4.8-2.15-4.8-4.8v-10.6c0-2.65 2.15-4.8 4.8-4.8s4.8 2.15 4.8 4.8v10.6c0 2.65-2.15 4.8-4.8 4.8z"/></g><g><path d="m247.78 255.31c-2.65 0-4.8-2.15-4.8-4.8v-10.6c0-2.65 2.15-4.8 4.8-4.8s4.8 2.15 4.8 4.8v10.6c0 2.65-2.15 4.8-4.8 4.8z"/></g><g><path d="m266.42 255.31c-2.65 0-4.8-2.15-4.8-4.8v-10.6c0-2.65 2.15-4.8 4.8-4.8s4.8 2.15 4.8 4.8v10.6c0 2.65-2.15 4.8-4.8 4.8z"/></g><g><path d="m285.06 255.31c-2.65 0-4.8-2.15-4.8-4.8v-10.6c0-2.65 2.15-4.8 4.8-4.8s4.8 2.15 4.8 4.8v10.6c0 2.65-2.15 4.8-4.8 4.8z"/></g><g><path d="m247.78 282c-2.65 0-4.8-2.15-4.8-4.8v-10.6c0-2.65 2.15-4.8 4.8-4.8s4.8 2.15 4.8 4.8v10.6c0 2.65-2.15 4.8-4.8 4.8z"/></g><g><path d="m266.42 282c-2.65 0-4.8-2.15-4.8-4.8v-10.6c0-2.65 2.15-4.8 4.8-4.8s4.8 2.15 4.8 4.8v10.6c0 2.65-2.15 4.8-4.8 4.8z"/></g><g><path d="m285.06 282c-2.65 0-4.8-2.15-4.8-4.8v-10.6c0-2.65 2.15-4.8 4.8-4.8s4.8 2.15 4.8 4.8v10.6c0 2.65-2.15 4.8-4.8 4.8z"/></g><g><path d="m247.78 308.68c-2.65 0-4.8-2.15-4.8-4.8v-10.6c0-2.65 2.15-4.8 4.8-4.8s4.8 2.15 4.8 4.8v10.6c0 2.65-2.15 4.8-4.8 4.8z"/></g><g><path d="m266.42 308.68c-2.65 0-4.8-2.15-4.8-4.8v-10.6c0-2.65 2.15-4.8 4.8-4.8s4.8 2.15 4.8 4.8v10.6c0 2.65-2.15 4.8-4.8 4.8z"/></g><g><path d="m285.06 308.68c-2.65 0-4.8-2.15-4.8-4.8v-10.6c0-2.65 2.15-4.8 4.8-4.8s4.8 2.15 4.8 4.8v10.6c0 2.65-2.15 4.8-4.8 4.8z"/></g><g><path d="m212.06 358.03c-2.65 0-4.8-2.15-4.8-4.8v-35.41h-60.91v35.41c0 2.65-2.15 4.8-4.8 4.8s-4.8-2.15-4.8-4.8v-38.17c0-3.77 3.07-6.84 6.84-6.84h66.43c3.77 0 6.84 3.07 6.84 6.84v38.17c0 2.65-2.15 4.8-4.8 4.8z"/></g><g><path d="m176.81 358.03c-2.65 0-4.8-2.15-4.8-4.8v-40.21c0-2.65 2.15-4.8 4.8-4.8s4.8 2.15 4.8 4.8v40.21c0 2.65-2.15 4.8-4.8 4.8z"/></g><g><path d="m231.7 358.03c-2.65 0-4.8-2.15-4.8-4.8v-194.17h-100.18v194.17c0 2.65-2.15 4.8-4.8 4.8s-4.8-2.15-4.8-4.8v-198.97c0-2.65 2.15-4.8 4.8-4.8h109.78c2.65 0 4.8 2.15 4.8 4.8v198.97c0 2.65-2.15 4.8-4.8 4.8z"/></g><g><path d="m162.8 203.94h-15.63c-4.75 0-8.61-3.86-8.61-8.61v-15.63c0-4.75 3.86-8.61 8.61-8.61h15.63c4.75 0 8.61 3.86 8.61 8.61v15.63c0 4.75-3.86 8.61-8.61 8.61zm-14.64-9.6h13.65v-13.65h-13.65z"/></g><g><path d="m206.44 203.94h-15.63c-4.75 0-8.61-3.86-8.61-8.61v-15.63c0-4.75 3.86-8.61 8.61-8.61h15.63c4.75 0 8.61 3.86 8.61 8.61v15.63c.01 4.75-3.86 8.61-8.61 8.61zm-14.63-9.6h13.65v-13.65h-13.65z"/></g><g><path d="m162.8 250.06h-15.63c-4.75 0-8.61-3.86-8.61-8.61v-15.63c0-4.75 3.86-8.61 8.61-8.61h15.63c4.75 0 8.61 3.86 8.61 8.61v15.63c0 4.75-3.86 8.61-8.61 8.61zm-14.64-9.6h13.65v-13.65h-13.65z"/></g><g><path d="m206.44 250.06h-15.63c-4.75 0-8.61-3.86-8.61-8.61v-15.63c0-4.75 3.86-8.61 8.61-8.61h15.63c4.75 0 8.61 3.86 8.61 8.61v15.63c.01 4.75-3.86 8.61-8.61 8.61zm-14.63-9.6h13.65v-13.65h-13.65z"/></g><g><path d="m162.8 296.18h-15.63c-4.75 0-8.61-3.86-8.61-8.61v-15.63c0-4.75 3.86-8.61 8.61-8.61h15.63c4.75 0 8.61 3.86 8.61 8.61v15.63c0 4.75-3.86 8.61-8.61 8.61zm-14.64-9.6h13.65v-13.65h-13.65z"/></g><g><path d="m206.44 296.18h-15.63c-4.75 0-8.61-3.86-8.61-8.61v-15.63c0-4.75 3.86-8.61 8.61-8.61h15.63c4.75 0 8.61 3.86 8.61 8.61v15.63c.01 4.75-3.86 8.61-8.61 8.61zm-14.63-9.6h13.65v-13.65h-13.65z"/></g><g><path d="m221.02 159.06c-2.65 0-4.8-2.15-4.8-4.8v-16.35h-78.83v16.35c0 2.65-2.15 4.8-4.8 4.8s-4.8-2.15-4.8-4.8v-21.15c0-2.65 2.15-4.8 4.8-4.8h88.43c2.65 0 4.8 2.15 4.8 4.8v21.15c0 2.65-2.15 4.8-4.8 4.8z"/></g><g><path d="m202.34 137.91c-2.65 0-4.8-2.15-4.8-4.8v-16.35h-41.47v16.35c0 2.65-2.15 4.8-4.8 4.8s-4.8-2.15-4.8-4.8v-21.15c0-2.65 2.15-4.8 4.8-4.8h51.07c2.65 0 4.8 2.15 4.8 4.8v21.15c0 2.65-2.14 4.8-4.8 4.8z"/></g><g><path d="m176.81 116.75c-2.65 0-4.8-2.15-4.8-4.8v-16.96c0-2.65 2.15-4.8 4.8-4.8s4.8 2.15 4.8 4.8v16.96c0 2.65-2.15 4.8-4.8 4.8z"/></g><g><path d="m284.42 358.03c-2.65 0-4.8-2.15-4.8-4.8v-29.97h-26.41v29.97c0 2.65-2.15 4.8-4.8 4.8s-4.8-2.15-4.8-4.8v-33.01c0-3.62 2.95-6.56 6.57-6.56h32.47c3.62 0 6.57 2.94 6.57 6.56v33.01c0 2.65-2.14 4.8-4.8 4.8z"/></g><g><path d="m266.42 358.03c-2.65 0-4.8-2.15-4.8-4.8v-34.77c0-2.65 2.15-4.8 4.8-4.8s4.8 2.15 4.8 4.8v34.77c0 2.65-2.15 4.8-4.8 4.8z"/></g><g><path d="m122.14 116.98h-50.1c-9.89 0-17.93-8.04-17.93-17.93 0-8.36 5.85-15.48 13.68-17.41 2.31-7.3 9.09-12.44 17.08-12.44h.2c3.6-8.08 11.62-13.43 20.78-13.43 12.55 0 22.76 10.21 22.76 22.76 0 1.25-.1 2.48-.3 3.69 6.85 2.52 11.77 9.13 11.77 16.83-.01 9.89-8.06 17.93-17.94 17.93zm-37.28-38.18c-4.34 0-7.9 3.25-8.29 7.56-.22 2.44-2.24 4.32-4.69 4.36-4.51.08-8.17 3.82-8.17 8.33 0 4.59 3.74 8.33 8.33 8.33h50.1c4.59 0 8.33-3.74 8.33-8.33 0-4.57-3.72-8.3-8.28-8.33-1.63-.01-3.14-.84-4.02-2.21s-1-3.09-.33-4.57c.77-1.7 1.16-3.53 1.16-5.42 0-7.26-5.9-13.16-13.16-13.16-6.16 0-11.44 4.19-12.82 10.18-.29 1.27-1.09 2.37-2.22 3.04-1.12.67-2.47.85-3.73.51-.72-.19-1.46-.29-2.21-.29z"/></g><g><path d="m427.21 155.21h-67.24c-3.05 0-6.01-.6-8.8-1.8-2.44-1.04-3.57-3.86-2.53-6.3s3.86-3.57 6.3-2.53c1.59.68 3.28 1.02 5.03 1.02h67.24c7.07 0 12.82-5.75 12.82-12.82 0-7.03-5.72-12.78-12.75-12.82-1.63-.01-3.14-.84-4.01-2.21-.88-1.37-1-3.09-.33-4.57 1.13-2.5 1.71-5.17 1.71-7.95 0-10.64-8.66-19.3-19.3-19.3-9.04 0-16.77 6.14-18.8 14.93-.29 1.27-1.09 2.37-2.22 3.04-1.12.67-2.47.85-3.73.51-1.1-.3-2.25-.46-3.4-.46-6.67 0-12.16 5-12.76 11.64-.22 2.44-2.24 4.32-4.69 4.36-1.66.03-3.27.37-4.79 1.02-2.44 1.04-5.26-.09-6.3-2.53s.09-5.26 2.53-6.3c1.42-.61 2.89-1.06 4.4-1.36 2.61-9.6 11.31-16.43 21.62-16.43.45 0 .9.01 1.34.04 4.34-10.83 14.8-18.06 26.81-18.06 15.94 0 28.9 12.96 28.9 28.9 0 2.06-.21 4.08-.63 6.06 9.25 2.77 16.02 11.37 16.02 21.49-.03 12.37-10.08 22.43-22.44 22.43z"/></g><g><path d="m263.97 105.63h-43.84c-8.98 0-16.29-7.31-16.29-16.29 0-7.48 5.16-13.87 12.1-15.74 2.17-6.4 8.15-10.9 15.2-10.98 3.32-7.09 10.45-11.75 18.57-11.75 11.31 0 20.51 9.2 20.51 20.51 0 .96-.06 1.91-.19 2.84 5.99 2.41 10.23 8.29 10.23 15.12 0 8.98-7.31 16.29-16.29 16.29zm-32.62-33.41c-3.48 0-6.34 2.61-6.66 6.07-.22 2.44-2.24 4.32-4.69 4.36-3.62.07-6.56 3.07-6.56 6.69 0 3.69 3 6.69 6.69 6.69h43.84c3.69 0 6.69-3 6.69-6.69 0-3.67-2.98-6.67-6.65-6.69-1.63-.01-3.14-.84-4.01-2.21-.88-1.37-1-3.09-.33-4.57.64-1.41.96-2.92.96-4.49 0-6.02-4.9-10.91-10.91-10.91-5.11 0-9.49 3.47-10.63 8.44-.29 1.27-1.09 2.37-2.22 3.04-1.12.67-2.47.85-3.73.51-.59-.16-1.19-.24-1.79-.24z"/></g></g></g></svg>