<svg clip-rule="evenodd" fill-rule="evenodd" height="45.155mm" image-rendering="optimizeQuality" shape-rendering="geometricPrecision" text-rendering="geometricPrecision" viewBox="0 0 3745 4515" width="37.453mm" xmlns="http://www.w3.org/2000/svg"><g id="Layer_x0020_1"><g id="_339887832"><g fill-rule="nonzero"><path d="m1708 173c923 0 1672 749 1672 1674 0 924-749 1674-1672 1674-924 0-1673-750-1673-1674 0-925 749-1674 1673-1674z" fill="#0ccef5"/><path d="m1708 138c471 0 898 191 1207 500 309 310 500 737 500 1209s-191 899-500 1208c-309 310-736 501-1207 501-472 0-899-191-1208-501-309-309-500-736-500-1208s191-899 500-1209c309-309 736-500 1208-500zm1157 550c-296-297-705-480-1157-480-453 0-862 183-1158 480-296 296-479 706-479 1159 0 452 183 862 479 1159 296 296 705 480 1158 480 452 0 861-184 1157-480 296-297 480-707 480-1159 0-453-184-863-480-1159z" fill="#080a0d"/><path d="m2802 581c287 249 488 594 554 985l-30 13-108 54-54 323-216-269 54-162-269-216-108 108 108 162v162l-270-54 216 215-162 54-216 162 54 540-378 108 54-432-108-162-54-216-323-54-108-323 270-216-108-162 269-216-54-162 216-161 213 59z" fill="#90ebbf"/><path d="m2827 556c147 128 273 281 369 453 95 168 162 354 195 551 3 17-7 33-23 39l-28 12-90 45-51 306c-3 19-21 32-41 29-10-2-18-7-23-15l-214-267c-8-10-10-23-6-33l46-139-226-181-65 65 92 138c4 6 6 13 6 20v162c0 19-16 35-35 35-3 0-6 0-9-1l-154-31 134 133c13 14 13 37 0 50-5 5-11 8-17 10l-154 51-195 146 52 520c2 17-9 33-25 37v1l-378 107c-19 6-38-5-44-24-1-5-1-9-1-14l53-418-101-151c-2-4-4-8-5-11l-48-194-301-50c-14-2-25-13-28-26l-107-321c-5-15 0-31 12-40l243-194-90-135c-10-17-6-38 10-49l248-199-46-139c-5-14 1-30 12-39l216-161c9-7 21-9 31-6l203 57 550-138c12-3 24 1 33 9zm308 487c-90-159-206-303-342-423l-541 136c-6 1-12 1-18-1l-196-55-181 136 46 138c4 14 0 29-12 39l-244 195 90 136c10 15 7 35-7 46l-251 201 93 280 302 50c14 2 26 12 30 27l52 210 103 155c6 7 8 16 7 25l-47 379 298-85-51-510c-1-12 4-24 14-32l216-162c3-2 6-4 10-5l107-36-175-175c-8-8-12-20-10-32 4-19 23-32 42-28l227 46v-109l-100-150c-11-14-10-34 3-47l108-108c12-12 32-14 47-2l268 214c12 9 18 25 13 40l-48 144 154 193 41-246c2-11 9-21 19-26l107-53c1-1 2-1 3-2l5-2c-34-178-96-347-182-501z" fill="#080a0d"/><path d="m659 543 159 65 188-162 378 162-108 215-108-107-108 54-162-54-107 107s314 152 311 167c-2 15 12 103 12 103l-216 54-215 108-54 216-162-54h-162s-85 122-54 162 223 53 223 53l101 163 269-54 378 377 162 270-217 215-161 55 54 377 108 216-324-162-107-323-54-378-216-162v-270l-162-215h-162l-90-139c63-427 286-801 606-1059z" fill="#90ebbf"/><path d="m674 511 137 56 172-148c11-9 25-11 37-5l378 161c18 8 26 29 18 47 0 1-1 2-2 3l-107 214c-8 18-29 25-47 16-3-2-6-4-9-7l-90-90-85 43c-9 4-18 5-27 2l-141-47-58 58c92 46 292 151 287 182-1 11 12 92 12 92 3 18-9 35-26 39l-213 53-197 99-50 200c-5 19-24 31-43 26-2 0-3-1-5-2l-153-51h-138c-19 29-56 91-45 105l1 1c24 27 196 39 196 39 13 1 24 8 29 18l87 140 246-49c12-2 23 2 31 10l378 377c3 3 5 6 7 10l160 267c9 14 6 32-5 43l-217 215c-4 4-9 7-14 8l-133 46 49 343 106 210c8 18 1 39-16 47-10 6-22 5-32 0l-323-161c-9-5-15-12-18-21l-108-323c0-2-1-4-1-7l-52-363-204-153c-9-7-14-17-14-28v-258l-144-192h-145c-13 0-25-8-31-19l-88-136c-5-8-7-16-6-24 32-215 103-417 207-598 106-186 246-350 412-484 11-8 25-10 37-4zm130 129-139-57c-152 126-280 278-379 451-97 170-165 359-196 560l72 111h143c11 0 21 5 28 15l160 213c6 6 9 14 9 23v253l200 149c8 6 14 15 15 25l54 375 102 306 217 108-60-119c-2-4-4-8-5-13l-54-377c-2-17 8-33 24-39l153-52 192-190-146-242-361-361-251 50c-14 3-29-3-37-16l-92-147c-49-5-186-21-226-61-1-2-3-3-4-5-44-56 40-184 52-201 6-10 17-17 30-17h162c4 0 7 0 11 2l126 41 44-178h1c2-10 8-19 18-23l213-107c3-2 6-3 10-4l185-46c-4-26-8-60-8-77 0-2 0-4 1-6 1-9-247-110-287-127-6-1-11-4-15-9-14-13-14-36 0-49l107-108h1c9-9 22-13 35-9l149 50 93-47c13-8 30-6 42 6l73 73 70-139-323-138-173 147c-9 9-23 11-36 6z" fill="#080a0d"/></g><path d="m2566 35c676 322 1144 1012 1144 1812 0 1107-896 2004-2002 2004-324 0-630-77-901-214" fill="none"/><path d="m2551 67c-18-8-26-29-17-47 8-17 29-25 47-17 349 167 644 430 850 755 199 315 314 689 314 1089 0 563-228 1073-596 1442-369 369-879 598-1441 598-163 0-321-20-472-55-156-37-305-93-445-163-17-9-24-30-16-48 9-17 30-24 48-15 134 68 278 121 429 157 146 35 299 53 456 53 543 0 1035-220 1391-577 356-356 576-848 576-1392 0-387-111-747-303-1051-199-314-484-568-821-729z" fill="#080a0d" fill-rule="nonzero"/><path d="m1743 4281c0 19-16 35-35 35-20 0-36-16-36-35v-430c0-19 16-35 36-35 19 0 35 16 35 35z" fill="#080a0d" fill-rule="nonzero"/><path d="m1189 4281h1038c54 0 99 45 99 99v100h-1237v-100c0-54 45-99 100-99z" fill="#ffa3a3" fill-rule="nonzero"/><path d="m1189 4246h1038c37 0 70 15 95 39 1 1 1 2 2 2 23 25 37 58 37 93v100c0 20-15 35-35 35h-1237c-19 0-35-15-35-35v-100c0-37 15-70 39-95 1-1 2-1 3-2 24-23 57-37 93-37zm1038 70h-1038c-17 0-33 7-44 18l-2 1c-11 12-19 28-19 45v65h1167v-65c0-17-7-32-18-44l-1-1c-12-12-28-19-45-19z" fill="#080a0d" fill-rule="nonzero"/></g></g></svg>