<?xml version="1.0" encoding="UTF-8" standalone="no"?>
<!-- Created with Inkscape (http://www.inkscape.org/) -->

<svg
   version="1.1"
   id="svg1416"
   xml:space="preserve"
   width="682.66669"
   height="682.66669"
   viewBox="0 0 682.66669 682.66669"
   xmlns="http://www.w3.org/2000/svg"
   xmlns:svg="http://www.w3.org/2000/svg"><defs
     id="defs1420"><clipPath
       clipPathUnits="userSpaceOnUse"
       id="clipPath1430"><path
         d="M 0,512 H 512 V 0 H 0 Z"
         id="path1428" /></clipPath></defs><g
     id="g1422"
     transform="matrix(1.3333333,0,0,-1.3333333,0,682.66667)"><g
       id="g1424"><g
         id="g1426"
         clip-path="url(#clipPath1430)"><g
           id="g1432"
           transform="translate(90.7217,394.4292)"><path
             d="m 0,0 16.181,-32.581 36.012,-5.142 c 9.672,-1.381 13.562,-13.253 6.582,-20.09 l -25.986,-25.457 6.238,-35.838 c 1.676,-9.625 -8.413,-16.994 -17.072,-12.469 l -32.241,16.848 -32.156,-17.007 c -8.637,-4.568 -18.762,2.75 -17.134,12.383 l 6.06,35.87 -26.112,25.327 c -7.014,6.802 -3.183,18.694 6.482,20.122 l 35.987,5.321 16.018,32.661 C -16.838,8.719 -4.345,8.75 0,0"
             style="fill:#fde734;fill-opacity:1;fill-rule:nonzero;stroke:none"
             id="path1434" /></g><g
           id="g1436"
           transform="translate(149.501,336.6172)"><path
             d="m 0,0 -25.987,-25.453 6.233,-35.845 c 1.682,-9.623 -8.412,-16.989 -17.071,-12.465 l -32.244,16.846 -32.153,-17.006 c -8.635,-4.567 -18.765,2.75 -17.132,12.38 l 1.527,9.061 c 61.174,6.606 84.823,46.602 93.935,74.901 L -6.588,20.09 C 3.084,18.708 6.973,6.839 0,0"
             style="fill:#f3d730;fill-opacity:1;fill-rule:nonzero;stroke:none"
             id="path1438" /></g><g
           id="g1440"
           transform="translate(106.9023,361.8481)"><path
             d="m 0,0 36.013,-5.142 c 9.672,-1.381 13.561,-13.253 6.582,-20.09 l -25.987,-25.456 6.239,-35.839 c 1.675,-9.625 -8.413,-16.994 -17.073,-12.469 l -32.241,16.849 -32.156,-17.008 c -8.637,-4.568 -18.762,2.75 -17.134,12.384 l 6.061,35.869 -26.113,25.327 c -7.013,6.803 -3.182,18.694 6.483,20.122 l 35.986,5.321 16.019,32.661 c 4.302,8.771 16.796,8.802 21.14,0.052"
             style="fill:none;stroke:#000000;stroke-width:15;stroke-linecap:round;stroke-linejoin:round;stroke-miterlimit:10;stroke-dasharray:none;stroke-opacity:1"
             id="path1442" /></g><g
           id="g1444"
           transform="translate(266.4473,394.4292)"><path
             d="m 0,0 16.181,-32.581 36.012,-5.142 c 9.671,-1.381 13.562,-13.253 6.582,-20.09 l -25.986,-25.457 6.238,-35.838 c 1.675,-9.625 -8.413,-16.994 -17.072,-12.469 l -32.241,16.848 -32.157,-17.007 c -8.636,-4.568 -18.761,2.75 -17.134,12.383 l 6.06,35.87 -26.112,25.327 c -7.013,6.802 -3.182,18.694 6.483,20.122 l 35.987,5.321 16.018,32.661 C -16.838,8.719 -4.346,8.75 0,0"
             style="fill:#fde734;fill-opacity:1;fill-rule:nonzero;stroke:none"
             id="path1446" /></g><g
           id="g1448"
           transform="translate(325.2266,336.6172)"><path
             d="m 0,0 -25.987,-25.453 6.233,-35.845 c 1.681,-9.623 -8.413,-16.989 -17.071,-12.465 l -32.244,16.846 -32.153,-17.006 c -8.635,-4.567 -18.765,2.75 -17.132,12.38 l 1.526,9.061 c 61.175,6.606 84.824,46.602 93.936,74.901 L -6.588,20.09 C 3.084,18.708 6.973,6.839 0,0"
             style="fill:#f3d730;fill-opacity:1;fill-rule:nonzero;stroke:none"
             id="path1450" /></g><g
           id="g1452"
           transform="translate(266.4473,394.4292)"><path
             d="m 0,0 16.181,-32.581 36.012,-5.142 c 9.671,-1.381 13.562,-13.253 6.582,-20.09 l -25.986,-25.457 6.238,-35.838 c 1.675,-9.625 -8.413,-16.994 -17.072,-12.469 l -32.241,16.848 -32.157,-17.007 c -8.636,-4.568 -18.761,2.75 -17.134,12.383 l 6.06,35.87 -26.112,25.327 c -7.013,6.802 -3.182,18.694 6.483,20.122 l 35.987,5.321 16.018,32.661 C -16.838,8.719 -4.346,8.75 0,0 Z"
             style="fill:none;stroke:#000000;stroke-width:15;stroke-linecap:round;stroke-linejoin:round;stroke-miterlimit:10;stroke-dasharray:none;stroke-opacity:1"
             id="path1454" /></g><g
           id="g1456"
           transform="translate(442.1729,394.4292)"><path
             d="m 0,0 16.181,-32.581 36.011,-5.142 c 9.672,-1.381 13.563,-13.253 6.583,-20.09 l -25.986,-25.457 6.238,-35.838 c 1.675,-9.625 -8.414,-16.994 -17.072,-12.469 l -32.241,16.848 -32.157,-17.007 c -8.636,-4.568 -18.762,2.75 -17.134,12.383 l 6.06,35.87 -26.112,25.327 c -7.013,6.802 -3.182,18.694 6.483,20.122 l 35.987,5.321 16.018,32.661 C -16.839,8.719 -4.346,8.75 0,0"
             style="fill:#fde734;fill-opacity:1;fill-rule:nonzero;stroke:none"
             id="path1458" /></g><g
           id="g1460"
           transform="translate(500.9521,336.6172)"><path
             d="m 0,0 -25.987,-25.453 6.233,-35.845 c 1.681,-9.623 -8.413,-16.989 -17.071,-12.465 l -32.244,16.846 -32.153,-17.006 c -8.635,-4.567 -18.765,2.75 -17.132,12.38 l 1.526,9.061 c 61.175,6.606 84.824,46.602 93.936,74.901 L -6.588,20.09 C 3.084,18.708 6.973,6.839 0,0"
             style="fill:#f3d730;fill-opacity:1;fill-rule:nonzero;stroke:none"
             id="path1462" /></g><g
           id="g1464"
           transform="translate(388.6562,310.9463)"><path
             d="m 0,0 -26.112,25.327 c -7.013,6.802 -3.182,18.694 6.483,20.122 l 35.986,5.321 16.019,32.661 c 4.302,8.771 16.795,8.802 21.141,0.052 l 16.18,-32.581 36.012,-5.142 c 9.672,-1.381 13.562,-13.253 6.583,-20.09 L 86.306,0.213 92.544,-35.625 C 94.219,-45.25 84.13,-52.619 75.472,-48.094 L 43.23,-31.246 11.073,-48.253 c -8.635,-4.568 -18.761,2.75 -17.134,12.383"
             style="fill:none;stroke:#000000;stroke-width:15;stroke-linecap:round;stroke-linejoin:round;stroke-miterlimit:10;stroke-dasharray:none;stroke-opacity:1"
             id="path1466" /></g><g
           id="g1468"
           transform="translate(178.585,244.1562)"><path
             d="m 0,0 16.18,-32.581 36.012,-5.142 c 9.672,-1.381 13.562,-13.253 6.583,-20.09 l -25.987,-25.457 6.238,-35.838 c 1.676,-9.625 -8.413,-16.994 -17.072,-12.469 l -32.24,16.848 -32.157,-17.007 c -8.637,-4.568 -18.762,2.75 -17.134,12.383 l 6.06,35.87 -26.112,25.327 c -7.013,6.802 -3.182,18.694 6.483,20.122 l 35.987,5.321 16.018,32.661 C -16.839,8.719 -4.346,8.75 0,0"
             style="fill:#f3e9f8;fill-opacity:1;fill-rule:nonzero;stroke:none"
             id="path1470" /></g><g
           id="g1472"
           transform="translate(237.3633,186.3442)"><path
             d="m 0,0 -25.986,-25.453 6.232,-35.846 c 1.682,-9.622 -8.412,-16.988 -17.07,-12.464 l -32.244,16.846 -32.153,-17.006 c -8.635,-4.567 -18.766,2.75 -17.133,12.38 l 1.527,9.061 c 61.175,6.606 84.823,46.602 93.936,74.901 L -6.587,20.09 C 3.085,18.708 6.973,6.839 0,0"
             style="fill:#e9d5f4;fill-opacity:1;fill-rule:nonzero;stroke:none"
             id="path1474" /></g><g
           id="g1476"
           transform="translate(98.9561,186.0005)"><path
             d="m 0,0 c -7.013,6.802 -3.182,18.693 6.483,20.122 l 35.987,5.32 16.018,32.662 c 4.302,8.771 16.795,8.802 21.141,0.052 l 16.18,-32.581 36.012,-5.142 c 9.672,-1.381 13.562,-13.253 6.583,-20.09 l -25.987,-25.457 6.238,-35.838 c 1.676,-9.626 -8.413,-16.994 -17.072,-12.469 l -32.24,16.848 -32.157,-17.008 c -8.637,-4.567 -18.762,2.751 -17.134,12.384 l 6.06,35.87"
             style="fill:none;stroke:#000000;stroke-width:15;stroke-linecap:round;stroke-linejoin:round;stroke-miterlimit:10;stroke-dasharray:none;stroke-opacity:1"
             id="path1478" /></g><g
           id="g1480"
           transform="translate(354.3105,244.1562)"><path
             d="m 0,0 16.18,-32.581 36.012,-5.142 c 9.672,-1.381 13.562,-13.253 6.583,-20.09 l -25.987,-25.457 6.238,-35.838 c 1.676,-9.625 -8.413,-16.994 -17.072,-12.469 l -32.24,16.848 -32.157,-17.007 c -8.637,-4.568 -18.762,2.75 -17.134,12.383 l 6.06,35.87 -26.112,25.327 c -7.014,6.802 -3.182,18.694 6.483,20.122 l 35.987,5.321 16.018,32.661 C -16.839,8.719 -4.346,8.75 0,0"
             style="fill:#f3e9f8;fill-opacity:1;fill-rule:nonzero;stroke:none"
             id="path1482" /></g><g
           id="g1484"
           transform="translate(413.0889,186.3442)"><path
             d="m 0,0 -25.987,-25.453 6.233,-35.846 c 1.682,-9.622 -8.412,-16.988 -17.07,-12.464 l -32.245,16.846 -32.152,-17.006 c -8.635,-4.567 -18.766,2.75 -17.133,12.38 l 1.527,9.061 c 61.175,6.606 84.823,46.602 93.936,74.901 L -6.587,20.09 C 3.085,18.708 6.973,6.839 0,0"
             style="fill:#e9d5f4;fill-opacity:1;fill-rule:nonzero;stroke:none"
             id="path1486" /></g><g
           id="g1488"
           transform="translate(354.3105,244.1562)"><path
             d="m 0,0 16.18,-32.581 36.012,-5.142 c 9.672,-1.381 13.562,-13.253 6.583,-20.09 l -25.987,-25.457 6.238,-35.838 c 1.676,-9.625 -8.413,-16.994 -17.072,-12.469 l -32.24,16.848 -32.157,-17.007 c -8.637,-4.568 -18.762,2.75 -17.134,12.383 l 6.06,35.87 -26.112,25.327 c -7.014,6.802 -3.182,18.694 6.483,20.122 l 35.987,5.321 16.018,32.661 C -16.839,8.719 -4.346,8.75 0,0 Z"
             style="fill:none;stroke:#000000;stroke-width:15;stroke-linecap:round;stroke-linejoin:round;stroke-miterlimit:10;stroke-dasharray:none;stroke-opacity:1"
             id="path1490" /></g></g></g></g></svg>
